<svg height="4206" width="720" xmlns="http://www.w3.org/2000/svg">
<rect height="4206" fill="#555" width="720"></rect>
<text fill="#7f7" font-family="Courier New" font-size="12" xml:space="preserve">
<tspan x="10" y="26"></tspan>
<tspan x="10" y="42">&gt; npmdoc-redis-commander@0.0.1 test /home/travis/build/npmdoc/node-npmdoc-redis-commander</tspan>
<tspan x="10" y="58">&gt; (set -e; export PORT=$(utility2 shServerPortRandom); utility2 test test.js)</tspan>
<tspan x="10" y="74"></tspan>
<tspan x="10" y="90"></tspan>
<tspan x="10" y="106">[MODE_BUILD=npmTest] - 2017-04-07T22:53:35Z - npm-testing /home/travis/build/npmdoc/node-npmdoc-\</tspan>
<tspan x="10" y="122">redis-commander</tspan>
<tspan x="10" y="138"></tspan>
<tspan x="10" y="154"></tspan>
<tspan x="10" y="170">covering $ /home/travis/.nvm/versions/node/v6.10.2/bin/node /home/travis/build/npmdoc/node-npmdo\</tspan>
<tspan x="10" y="186">c-redis-commander/test.js</tspan>
<tspan x="10" y="202">merging file:///home/travis/build/npmdoc/node-npmdoc-redis-commander/tmp/build/test-report.json \</tspan>
<tspan x="10" y="218">to test-report</tspan>
<tspan x="10" y="234">&gt; server listening on http-port 62925</tspan>
<tspan x="10" y="250">created apidoc file:///home/travis/build/npmdoc/node-npmdoc-redis-commander/tmp/build/apidoc.htm\</tspan>
<tspan x="10" y="266">l</tspan>
<tspan x="10" y="282"></tspan>
<tspan x="10" y="298"></tspan>
<tspan x="10" y="314">browserTest - created electron entry-page /home/travis/build/npmdoc/node-npmdoc-redis-commander/\</tspan>
<tspan x="10" y="330">tmp/electron.15b4a9f76f50.ea501e8431b8b.html</tspan>
<tspan x="10" y="346"></tspan>
<tspan x="10" y="362">[node test-case 1 of 6 passed] - testCase_buildLib_default</tspan>
<tspan x="10" y="378">[node test-case 2 of 6 passed] - testCase_buildReadme_default</tspan>
<tspan x="10" y="394">[node test-case 3 of 6 passed] - testCase_buildTest_default</tspan>
<tspan x="10" y="410"></tspan>
<tspan x="10" y="426">browserTest - created electron entry-page /home/travis/build/npmdoc/node-npmdoc-redis-commander/\</tspan>
<tspan x="10" y="442">tmp/electron.15b4a9f772a0.fa4b25fd8cecf.html</tspan>
<tspan x="10" y="458"></tspan>
<tspan x="10" y="474">Xlib:  extension "RANDR" missing on display ":99.0".</tspan>
<tspan x="10" y="490">Xlib:  extension "RANDR" missing on display ":99.0".</tspan>
<tspan x="10" y="506">merging file:///home/travis/build/npmdoc/node-npmdoc-redis-commander/tmp/build/test-report.json \</tspan>
<tspan x="10" y="522">to test-report</tspan>
<tspan x="10" y="538">Xlib:  extension "RANDR" missing on display ":99.0".</tspan>
<tspan x="10" y="554">[4933:0407/225337:WARNING:audio_manager.cc(314)] Multiple instances of AudioManager detected</tspan>
<tspan x="10" y="570">[4933:0407/225337:WARNING:audio_manager.cc(275)] Multiple instances of AudioManager detected</tspan>
<tspan x="10" y="586">merging file:///home/travis/build/npmdoc/node-npmdoc-redis-commander/tmp/build/test-report.json \</tspan>
<tspan x="10" y="602">to test-report</tspan>
<tspan x="10" y="618">[4954:0407/225337:ERROR:sandbox_linux.cc(343)] InitializeSandbox() called with multiple threads \</tspan>
<tspan x="10" y="634">in process gpu-process. </tspan>
<tspan x="10" y="650">Xlib:  extension "RANDR" missing on display ":99.0".</tspan>
<tspan x="10" y="666">[4928:0407/225337:WARNING:audio_manager.cc(314)] Multiple instances of AudioManager detected</tspan>
<tspan x="10" y="682">[4928:0407/225337:WARNING:audio_manager.cc(275)] Multiple instances of AudioManager detected</tspan>
<tspan x="10" y="698">[4933:0407/225337:ERROR:browser_gpu_channel_host_factory.cc(131)] Failed to create channel.</tspan>
<tspan x="10" y="714">[4981:0407/225337:ERROR:sandbox_linux.cc(343)] InitializeSandbox() called with multiple threads \</tspan>
<tspan x="10" y="730">in process gpu-process. </tspan>
<tspan x="10" y="746">[4928:0407/225337:ERROR:browser_gpu_channel_host_factory.cc(131)] Failed to create channel.</tspan>
<tspan x="10" y="762"></tspan>
<tspan x="10" y="778">browserTest - opened url /home/travis/build/npmdoc/node-npmdoc-redis-commander/tmp/build/apidoc.\</tspan>
<tspan x="10" y="794">html</tspan>
<tspan x="10" y="810"></tspan>
<tspan x="10" y="826"></tspan>
<tspan x="10" y="842">browserTest - opened url http://127.0.0.1:62925?modeTest=1</tspan>
<tspan x="10" y="858"></tspan>
<tspan x="10" y="874">[4933:0407/225339:INFO:CONSOLE(249)] "----------|-----------|-----------|-----------|-----------\</tspan>
<tspan x="10" y="890">|</tspan>
<tspan x="10" y="906">File      |   % Stmts |% Branches |   % Funcs |   % Lines |</tspan>
<tspan x="10" y="922">----------|-----------|-----------|-----------|-----------|</tspan>
<tspan x="10" y="938">----------|-----------|-----------|-----------|-----------|</tspan>
<tspan x="10" y="954">All files |       100 |       100 |       100 |       100 |</tspan>
<tspan x="10" y="970">----------|-----------|-----------|-----------|-----------|</tspan>
<tspan x="10" y="986">", source: file:///home/travis/build/npmdoc/node-npmdoc-redis-commander/tmp/electron.15b4a9f772a\</tspan>
<tspan x="10" y="1002">0.fa4b25fd8cecf.html (249)</tspan>
<tspan x="10" y="1018">[4933:0407/225339:INFO:CONSOLE(249)] "created coverage file:///tmp/build/coverage.html/index.htm\</tspan>
<tspan x="10" y="1034">l", source: file:///home/travis/build/npmdoc/node-npmdoc-redis-commander/tmp/electron.15b4a9f772\</tspan>
<tspan x="10" y="1050">a0.fa4b25fd8cecf.html (249)</tspan>
<tspan x="10" y="1066"></tspan>
<tspan x="10" y="1082">browserTest - exit-code 1 - /home/travis/build/npmdoc/node-npmdoc-redis-commander/tmp/build/apid\</tspan>
<tspan x="10" y="1098">oc.html</tspan>
<tspan x="10" y="1114"></tspan>
<tspan x="10" y="1130"></tspan>
<tspan x="10" y="1146">browserTest - created screenCapture file:///home/travis/build/npmdoc/node-npmdoc-redis-commander\</tspan>
<tspan x="10" y="1162">/tmp/build/screenCapture.%2F.png</tspan>
<tspan x="10" y="1178"></tspan>
<tspan x="10" y="1194">browserTest - created screenCapture file:///home/travis/build/npmdoc/node-npmdoc-redis-commander\</tspan>
<tspan x="10" y="1210">/tmp/build/screenCapture.%2F.html</tspan>
<tspan x="10" y="1226"></tspan>
<tspan x="10" y="1242">browserTest - exit-code 0 - http://127.0.0.1:62925?modeTest=1</tspan>
<tspan x="10" y="1258"></tspan>
<tspan x="10" y="1274"></tspan>
<tspan x="10" y="1290">browserTest - merged coverage from /home/travis/build/npmdoc/node-npmdoc-redis-commander/tmp/cov\</tspan>
<tspan x="10" y="1306">erage.%2F.json</tspan>
<tspan x="10" y="1322"></tspan>
<tspan x="10" y="1338"></tspan>
<tspan x="10" y="1354">browserTest - merging test-report from /home/travis/build/npmdoc/node-npmdoc-redis-commander/tmp\</tspan>
<tspan x="10" y="1370">/test-report.%2F.json</tspan>
<tspan x="10" y="1386"></tspan>
<tspan x="10" y="1402">[node test-case 4 of 6 passed] - testCase_webpage_default</tspan>
<tspan x="10" y="1418"></tspan>
<tspan x="10" y="1434">testCase testCase_buildApidoc_default failed</tspan>
<tspan x="10" y="1450">onTimeout - timeout-error - 30000 ms - testCase_buildApidoc_default</tspan>
<tspan x="10" y="1466">Error: onTimeout - timeout-error - 30000 ms - testCase_buildApidoc_default</tspan>
<tspan x="10" y="1482">    at Timeout._onTimeout (/home/travis/build/npmdoc/node-npmdoc-redis-commander/node_modules/ut\</tspan>
<tspan x="10" y="1498">ility2/lib.utility2.js:4138:25)</tspan>
<tspan x="10" y="1514">    at ontimeout (timers.js:380:14)</tspan>
<tspan x="10" y="1530">    at tryOnTimeout (timers.js:244:5)</tspan>
<tspan x="10" y="1546">    at Timer.listOnTimeout (timers.js:214:5)</tspan>
<tspan x="10" y="1562">Error</tspan>
<tspan x="10" y="1578">    at Object.local.onTimeout (/home/travis/build/npmdoc/node-npmdoc-redis-commander/node_module\</tspan>
<tspan x="10" y="1594">s/utility2/lib.utility2.js:4135:29)</tspan>
<tspan x="10" y="1610">    at /home/travis/build/npmdoc/node-npmdoc-redis-commander/node_modules/utility2/lib.utility2.\</tspan>
<tspan x="10" y="1626">js:5422:38</tspan>
<tspan x="10" y="1642">    at onEach2 (/home/travis/build/npmdoc/node-npmdoc-redis-commander/node_modules/utility2/lib.\</tspan>
<tspan x="10" y="1658">utility2.js:4050:21)</tspan>
<tspan x="10" y="1674">    at Object.local.onParallelList (/home/travis/build/npmdoc/node-npmdoc-redis-commander/node_m\</tspan>
<tspan x="10" y="1690">odules/utility2/lib.utility2.js:4076:13)</tspan>
<tspan x="10" y="1706">    at Object.local.testRunDefault (/home/travis/build/npmdoc/node-npmdoc-redis-commander/node_m\</tspan>
<tspan x="10" y="1722">odules/utility2/lib.utility2.js:5377:19)</tspan>
<tspan x="10" y="1738">    at /home/travis/build/npmdoc/node-npmdoc-redis-commander/node_modules/utility2/lib.utility2.\</tspan>
<tspan x="10" y="1754">js:5318:35</tspan>
<tspan x="10" y="1770">    at /home/travis/build/npmdoc/node-npmdoc-redis-commander/node_modules/utility2/lib.utility2.\</tspan>
<tspan x="10" y="1786">js:3950:17</tspan>
<tspan x="10" y="1802">    at /home/travis/build/npmdoc/node-npmdoc-redis-commander/node_modules/utility2/lib.utility2.\</tspan>
<tspan x="10" y="1818">js:4803:29</tspan>
<tspan x="10" y="1834">    at Array.forEach (native)</tspan>
<tspan x="10" y="1850">[node test-case 5 of 6 failed] - testCase_buildApidoc_default</tspan>
<tspan x="10" y="1866"></tspan>
<tspan x="10" y="1882">testCase testCase_buildApp_default failed</tspan>
<tspan x="10" y="1898">onTimeout - timeout-error - 30000 ms - testCase_buildApp_default</tspan>
<tspan x="10" y="1914">Error: onTimeout - timeout-error - 30000 ms - testCase_buildApp_default</tspan>
<tspan x="10" y="1930">    at Timeout._onTimeout (/home/travis/build/npmdoc/node-npmdoc-redis-commander/node_modules/ut\</tspan>
<tspan x="10" y="1946">ility2/lib.utility2.js:4138:25)</tspan>
<tspan x="10" y="1962">    at ontimeout (timers.js:380:14)</tspan>
<tspan x="10" y="1978">    at tryOnTimeout (timers.js:244:5)</tspan>
<tspan x="10" y="1994">    at Timer.listOnTimeout (timers.js:214:5)</tspan>
<tspan x="10" y="2010">Error</tspan>
<tspan x="10" y="2026">    at Object.local.onTimeout (/home/travis/build/npmdoc/node-npmdoc-redis-commander/node_module\</tspan>
<tspan x="10" y="2042">s/utility2/lib.utility2.js:4135:29)</tspan>
<tspan x="10" y="2058">    at /home/travis/build/npmdoc/node-npmdoc-redis-commander/node_modules/utility2/lib.utility2.\</tspan>
<tspan x="10" y="2074">js:5422:38</tspan>
<tspan x="10" y="2090">    at onEach2 (/home/travis/build/npmdoc/node-npmdoc-redis-commander/node_modules/utility2/lib.\</tspan>
<tspan x="10" y="2106">utility2.js:4050:21)</tspan>
<tspan x="10" y="2122">    at Object.local.onParallelList (/home/travis/build/npmdoc/node-npmdoc-redis-commander/node_m\</tspan>
<tspan x="10" y="2138">odules/utility2/lib.utility2.js:4076:13)</tspan>
<tspan x="10" y="2154">    at Object.local.testRunDefault (/home/travis/build/npmdoc/node-npmdoc-redis-commander/node_m\</tspan>
<tspan x="10" y="2170">odules/utility2/lib.utility2.js:5377:19)</tspan>
<tspan x="10" y="2186">    at /home/travis/build/npmdoc/node-npmdoc-redis-commander/node_modules/utility2/lib.utility2.\</tspan>
<tspan x="10" y="2202">js:5318:35</tspan>
<tspan x="10" y="2218">    at /home/travis/build/npmdoc/node-npmdoc-redis-commander/node_modules/utility2/lib.utility2.\</tspan>
<tspan x="10" y="2234">js:3950:17</tspan>
<tspan x="10" y="2250">    at /home/travis/build/npmdoc/node-npmdoc-redis-commander/node_modules/utility2/lib.utility2.\</tspan>
<tspan x="10" y="2266">js:4803:29</tspan>
<tspan x="10" y="2282">    at Array.forEach (native)</tspan>
<tspan x="10" y="2298">    at task.onDone (/home/travis/build/npmdoc/node-npmdoc-redis-commander/node_modules/utility2/\</tspan>
<tspan x="10" y="2314">lib.utility2.js:4802:34)</tspan>
<tspan x="10" y="2330">    at Object.onTask (/home/travis/build/npmdoc/node-npmdoc-redis-commander/node_modules/utility\</tspan>
<tspan x="10" y="2346">2/lib.utility2.js:4097:17)</tspan>
<tspan x="10" y="2362">    at Object.local.taskCreate (/home/travis/build/npmdoc/node-npmdoc-redis-commander/node_modul\</tspan>
<tspan x="10" y="2378">es/utility2/lib.utility2.js:4814:18)</tspan>
<tspan x="10" y="2394">    at /home/travis/build/npmdoc/node-npmdoc-redis-commander/node_modules/utility2/lib.utility2.\</tspan>
<tspan x="10" y="2410">js:4094:19</tspan>
<tspan x="10" y="2426">    at /home/travis/build/npmdoc/node-npmdoc-redis-commander/node_modules/utility2/lib.utility2.\</tspan>
<tspan x="10" y="2442">js:3950:17</tspan>
<tspan x="10" y="2458">    at onParallel (/home/travis/build/npmdoc/node-npmdoc-redis-commander/node_modules/utility2/l\</tspan>
<tspan x="10" y="2474">ib.utility2.js:4026:21)</tspan>
<tspan x="10" y="2490">[node test-case 6 of 6 failed] - testCase_buildApp_default</tspan>
<tspan x="10" y="2506"></tspan>
<tspan x="10" y="2522">testCase testCase_buildApidoc_default failed</tspan>
<tspan x="10" y="2538">callback in testCase testCase_buildApidoc_default called multiple times</tspan>
<tspan x="10" y="2554">Error: callback in testCase testCase_buildApidoc_default called multiple times</tspan>
<tspan x="10" y="2570">    at Timeout.onError [as _onTimeout] (/home/travis/build/npmdoc/node-npmdoc-redis-commander/no\</tspan>
<tspan x="10" y="2586">de_modules/utility2/lib.utility2.js:5386:42)</tspan>
<tspan x="10" y="2602">    at ontimeout (timers.js:380:14)</tspan>
<tspan x="10" y="2618">    at tryOnTimeout (timers.js:244:5)</tspan>
<tspan x="10" y="2634">    at Timer.listOnTimeout (timers.js:214:5)</tspan>
<tspan x="10" y="2650">------------------------------------|-----------|-----------|-----------|-----------|</tspan>
<tspan x="10" y="2666">File                                |   % Stmts |% Branches |   % Funcs |   % Lines |</tspan>
<tspan x="10" y="2682">------------------------------------|-----------|-----------|-----------|-----------|</tspan>
<tspan x="10" y="2698">   node-npmdoc-redis-commander/     |       100 |       100 |       100 |       100 |</tspan>
<tspan x="10" y="2714">      example.js                    |       100 |       100 |       100 |       100 |</tspan>
<tspan x="10" y="2730">      lib.npmdoc_redis_commander.js |       100 |       100 |       100 |       100 |</tspan>
<tspan x="10" y="2746">      test.js                       |       100 |       100 |       100 |       100 |</tspan>
<tspan x="10" y="2762">------------------------------------|-----------|-----------|-----------|-----------|</tspan>
<tspan x="10" y="2778">All files                           |       100 |       100 |       100 |       100 |</tspan>
<tspan x="10" y="2794">------------------------------------|-----------|-----------|-----------|-----------|</tspan>
<tspan x="10" y="2810"></tspan>
<tspan x="10" y="2826">created coverage file:///home/travis/build/npmdoc/node-npmdoc-redis-commander/node_modules/redis\</tspan>
<tspan x="10" y="2842">-commander/tmp/build/coverage.html/index.html</tspan>
<tspan x="10" y="2858">merging file:///home/travis/build/npmdoc/node-npmdoc-redis-commander/tmp/build/test-report.json \</tspan>
<tspan x="10" y="2874">to test-report</tspan>
<tspan x="10" y="2890">&gt; server listening on http-port 62925</tspan>
<tspan x="10" y="2906">created apidoc file:///home/travis/build/npmdoc/node-npmdoc-redis-commander/tmp/build/apidoc.htm\</tspan>
<tspan x="10" y="2922">l</tspan>
<tspan x="10" y="2938"></tspan>
<tspan x="10" y="2954"></tspan>
<tspan x="10" y="2970">browserTest - created electron entry-page /home/travis/build/npmdoc/node-npmdoc-redis-commander/\</tspan>
<tspan x="10" y="2986">tmp/electron.15b4a9ff8500.a214e663c61b3.html</tspan>
<tspan x="10" y="3002"></tspan>
<tspan x="10" y="3018">[node test-case 1 of 6 passed] - testCase_buildLib_default</tspan>
<tspan x="10" y="3034">[node test-case 2 of 6 passed] - testCase_buildReadme_default</tspan>
<tspan x="10" y="3050">[node test-case 3 of 6 passed] - testCase_buildTest_default</tspan>
<tspan x="10" y="3066"></tspan>
<tspan x="10" y="3082">browserTest - created electron entry-page /home/travis/build/npmdoc/node-npmdoc-redis-commander/\</tspan>
<tspan x="10" y="3098">tmp/electron.15b4a9ff8840.390dd19db4a21.html</tspan>
<tspan x="10" y="3114"></tspan>
<tspan x="10" y="3130">Xlib:  extension "RANDR" missing on display ":99.0".</tspan>
<tspan x="10" y="3146">Xlib:  extension "RANDR" missing on display ":99.0".</tspan>
<tspan x="10" y="3162">merging file:///home/travis/build/npmdoc/node-npmdoc-redis-commander/tmp/build/test-report.json \</tspan>
<tspan x="10" y="3178">to test-report</tspan>
<tspan x="10" y="3194">Xlib:  extension "RANDR" missing on display ":99.0".</tspan>
<tspan x="10" y="3210">[5063:0407/225410:WARNING:audio_manager.cc(314)] Multiple instances of AudioManager detected</tspan>
<tspan x="10" y="3226">[5063:0407/225410:WARNING:audio_manager.cc(275)] Multiple instances of AudioManager detected</tspan>
<tspan x="10" y="3242">[5089:0407/225410:ERROR:sandbox_linux.cc(343)] InitializeSandbox() called with multiple threads \</tspan>
<tspan x="10" y="3258">in process gpu-process. </tspan>
<tspan x="10" y="3274">merging file:///home/travis/build/npmdoc/node-npmdoc-redis-commander/tmp/build/test-report.json \</tspan>
<tspan x="10" y="3290">to test-report</tspan>
<tspan x="10" y="3306">Xlib:  extension "RANDR" missing on display ":99.0".</tspan>
<tspan x="10" y="3322">[5067:0407/225410:WARNING:audio_manager.cc(314)] Multiple instances of AudioManager detected</tspan>
<tspan x="10" y="3338">[5067:0407/225410:WARNING:audio_manager.cc(275)] Multiple instances of AudioManager detected</tspan>
<tspan x="10" y="3354"></tspan>
<tspan x="10" y="3370">browserTest - opened url /home/travis/build/npmdoc/node-npmdoc-redis-commander/tmp/build/apidoc.\</tspan>
<tspan x="10" y="3386">html</tspan>
<tspan x="10" y="3402"></tspan>
<tspan x="10" y="3418">[5122:0407/225410:ERROR:sandbox_linux.cc(343)] InitializeSandbox() called with multiple threads \</tspan>
<tspan x="10" y="3434">in process gpu-process. </tspan>
<tspan x="10" y="3450">[5067:0407/225410:ERROR:browser_gpu_channel_host_factory.cc(131)] Failed to create channel.</tspan>
<tspan x="10" y="3466"></tspan>
<tspan x="10" y="3482">browserTest - opened url http://127.0.0.1:62925?modeTest=1</tspan>
<tspan x="10" y="3498"></tspan>
<tspan x="10" y="3514">&gt; server listening on http-port 48177</tspan>
<tspan x="10" y="3530">[node test-case 4 of 6 passed] - testCase_buildApp_default</tspan>
<tspan x="10" y="3546"></tspan>
<tspan x="10" y="3562">browserTest - exit-code 1 - /home/travis/build/npmdoc/node-npmdoc-redis-commander/tmp/build/apid\</tspan>
<tspan x="10" y="3578">oc.html</tspan>
<tspan x="10" y="3594"></tspan>
<tspan x="10" y="3610">[node test-case 5 of 6 passed] - testCase_buildApidoc_default</tspan>
<tspan x="10" y="3626"></tspan>
<tspan x="10" y="3642">browserTest - created screenCapture file:///home/travis/build/npmdoc/node-npmdoc-redis-commander\</tspan>
<tspan x="10" y="3658">/tmp/build/screenCapture.%2F.png</tspan>
<tspan x="10" y="3674"></tspan>
<tspan x="10" y="3690">browserTest - created screenCapture file:///home/travis/build/npmdoc/node-npmdoc-redis-commander\</tspan>
<tspan x="10" y="3706">/tmp/build/screenCapture.%2F.html</tspan>
<tspan x="10" y="3722"></tspan>
<tspan x="10" y="3738">browserTest - exit-code 0 - http://127.0.0.1:62925?modeTest=1</tspan>
<tspan x="10" y="3754"></tspan>
<tspan x="10" y="3770"></tspan>
<tspan x="10" y="3786">browserTest - merged coverage from /home/travis/build/npmdoc/node-npmdoc-redis-commander/tmp/cov\</tspan>
<tspan x="10" y="3802">erage.%2F.json</tspan>
<tspan x="10" y="3818"></tspan>
<tspan x="10" y="3834"></tspan>
<tspan x="10" y="3850">browserTest - merging test-report from /home/travis/build/npmdoc/node-npmdoc-redis-commander/tmp\</tspan>
<tspan x="10" y="3866">/test-report.%2F.json</tspan>
<tspan x="10" y="3882"></tspan>
<tspan x="10" y="3898">[node test-case 6 of 6 passed] - testCase_webpage_default</tspan>
<tspan x="10" y="3914">merging file:///home/travis/build/npmdoc/node-npmdoc-redis-commander/tmp/build/test-report.json \</tspan>
<tspan x="10" y="3930">to test-report</tspan>
<tspan x="10" y="3946"></tspan>
<tspan x="10" y="3962">-------------------------------------------------------</tspan>
<tspan x="10" y="3978">| test-report - buildNpmdoc - node - linux v6.10.2 - 2017-04-07T22:53:15.127Z</tspan>
<tspan x="10" y="3994">|   69934 ms            0 failed        6 passed      |</tspan>
<tspan x="10" y="4010">-------------------------------------------------------</tspan>
<tspan x="10" y="4026"></tspan>
<tspan x="10" y="4042">created test-report file:///home/travis/build/npmdoc/node-npmdoc-redis-commander/tmp/build/test-\</tspan>
<tspan x="10" y="4058">report.html</tspan>
<tspan x="10" y="4074"></tspan>
<tspan x="10" y="4090"></tspan>
<tspan x="10" y="4106">npmTest - 0 failed tests</tspan>
<tspan x="10" y="4122"></tspan>
<tspan x="10" y="4138"></tspan>
<tspan x="10" y="4154">[MODE_BUILD=npmTest] - 2017-04-07T22:54:27Z - EXIT_CODE - 2</tspan>
<tspan x="10" y="4170"></tspan>
<tspan x="10" y="4186">npm ERR! Test failed.  See above for more details.</tspan>
</text>
</svg>
